<svg xmlns="http://www.w3.org/2000/svg" version="1.1" xmlns:xlink="http://www.w3.org/1999/xlink" xmlns:svgjs="http://svgjs.com/svgjs" width="703" height="731"><svg width="703" height="731" viewBox="0 0 703 731" fill="none" xmlns="http://www.w3.org/2000/svg">
<rect x="116" y="184" width="470" height="363" rx="103" fill="#2B162D"></rect>
<path d="M337.107 1.87514e-05C265.096 -0.0230439 194.682 21.2283 134.707 61.0861C74.7321 100.944 27.8684 157.631 0 224.032L207.074 707.18C257.15 726.174 310.788 733.929 364.193 729.898C417.597 725.867 469.464 710.148 516.121 683.853C562.778 657.558 603.086 621.33 634.192 577.733C665.298 534.135 686.442 484.234 696.127 431.56C705.813 378.886 703.803 324.728 690.24 272.917C676.678 221.106 651.894 172.909 617.642 131.737C583.39 90.5643 540.508 57.4232 492.03 34.6585C443.553 11.8937 390.664 0.0618256 337.107 1.87514e-05ZM451.499 548.202H435.345L334.768 314.302L298.441 415.756L310.574 443.678L277.536 548.202H261.456L125.282 233.388H249.541V236.969C220.962 241.355 243.694 288.793 243.694 288.793L292.082 401.137L304.069 367.807C319.419 324.389 313.644 275.636 295.079 233.388H393.974L487.095 448.648L451.499 548.202ZM516.186 332.429L473.354 233.388H555.438L516.186 332.429Z" fill="#EEE3D9"></path>
</svg><style>@media (prefers-color-scheme: light) { :root { filter: none; } }
</style></svg>