<svg width="677" height="137" viewBox="0 0 677 137" fill="none" xmlns="http://www.w3.org/2000/svg">
<path d="M406.177 0.255023H363.542C371.545 18.4937 374.139 39.4937 367.401 58.2377L362.25 72.6017L341.301 24.1697C341.301 24.1697 331.483 3.70035 343.81 1.79769V0.255023H290.281L349.014 136.032H355.961L370.209 90.999L364.99 78.9364L380.634 35.2924L424.039 136.032H430.986L446.345 93.1137L406.177 0.255023Z" fill="#EEE3D9"/>
<path d="M621.459 0.254657V1.79732C640.845 5.02665 639.682 20.1693 631.313 40.036L620.546 63.208C620.257 62.672 619.957 62.14 619.646 61.6133L598.922 26.4787C585.806 4.29732 589.51 2.62399 593.938 1.60399V0.254657H541.281C541.281 0.254657 559.997 32.656 588.347 82.8013V123.776C588.347 128.993 584.295 134.489 577.634 134.489L577.635 136.032H633.091V134.296C625.698 134.296 626.343 127.672 626.343 114.239V86.1467C626.343 80.9013 625.487 75.716 623.833 70.7853C625.245 65.3227 627.155 59.9853 629.553 54.8427L635.669 41.7213C653.058 5.62399 670.902 3.25599 676.234 1.79732V0.254657H621.459Z" fill="#EEE3D9"/>
<path d="M562.405 118.483L562.388 118.5C554.213 100.26 511.295 0.254535 511.295 0.254535H510.329L490 51.5705L508.817 93.9105H473.419C458.565 127.856 446.107 134.103 440.32 134.489L439.767 136.032H495.867V134.489C472.72 134.489 472.537 107.488 476.395 98.6159H497.237C505.573 98.6159 513.152 103.456 516.659 111.019L517.077 111.924C517.077 111.924 528.653 134.489 513.221 134.489V136.032H545.647H577.635V134.489C573.204 134.281 569.136 133.441 562.405 118.483Z" fill="#EEE3D9"/>
<path d="M458.899 42.967L475.82 0.255043H440.423L458.899 42.967Z" fill="#EEE3D9"/>
<path d="M309.621 126.018H194.773V73.0339H286.703L282.372 63.0246H194.773L194.875 10.2686H259.552L255.22 0.255267H180.133V63.2486H113.911V0.255267H0.350708V10.2686H42.1974V136.033H56.8374V10.2686H99.2707V136.033H113.911L113.863 73.2659H180.085L180.133 136.033H313.953L309.621 126.018Z" fill="#EEE3D9"/>
</svg>
