<svg width="2106" height="700" viewBox="0 0 2106 700" fill="none" xmlns="http://www.w3.org/2000/svg">
<path d="M1264.46 40.3438H1135.43C1159.66 95.5198 1167.45 159.127 1147.17 215.797L1131.27 259.341L1067.88 112.702C1067.88 112.702 1038.21 50.6959 1075.45 44.9329V40.3438H913.661L1091.46 451.336H1112.81L1155.5 315.05L1139.7 278.444L1187.09 146.427L1318.46 451.336H1339.81L1386.34 321.454L1264.46 40.3438Z" fill="#EEE3D9"/>
<path d="M1916.22 40.3438V44.9329C1974.92 54.7514 1971.4 100.643 1946 160.728L1913.45 230.845L1910.78 226.043L1848.03 119.319C1808.32 52.0833 1819.53 47.0673 1832.87 43.9724V40.3438H1673.53C1673.53 40.3438 1730.2 138.423 1816.01 290.184V414.197C1816.01 422.688 1812.64 430.832 1806.63 436.836C1800.63 442.84 1792.48 446.214 1783.99 446.214V450.909H1951.87V446.107C1929.46 446.107 1931.38 426.043 1931.38 385.381V300.002C1931.39 284.184 1928.83 268.469 1923.8 253.471C1928.07 236.896 1933.86 220.748 1941.09 205.232L1959.66 165.531C2012.27 56.2456 2066.38 49.0951 2082.5 44.6127V40.3438H1916.22Z" fill="#EEE3D9"/>
<path d="M1737.46 398.188C1712.59 343.012 1582.71 40.3438 1582.71 40.3438H1579.51L1517.93 195.627L1574.92 323.695H1468.2C1423.16 426.47 1385.49 445.36 1367.98 446.534L1366.28 451.23H1536.07V446.534C1466.06 446.534 1465.53 364.783 1477.16 337.996H1540.23C1552.6 337.98 1564.72 341.51 1575.14 348.168C1585.56 354.826 1593.86 364.334 1599.04 375.563L1600.32 378.231C1600.32 378.231 1635.33 446.534 1588.69 446.534V451.23H1783.67V446.534C1770.12 446 1757.84 443.546 1737.46 398.188Z" fill="#EEE3D9"/>
<path d="M1424.12 169.586L1475.35 40.3438H1368.2L1424.12 169.586Z" fill="#EEE3D9"/>
<path d="M971.505 421.027H623.799V261.262L902.455 261.368L889.328 230.952H623.799V70.6532H819.957L806.83 40.3438H579.509V230.952H379.082V40.3438H35.3255V70.6532H161.9V451.336H206.297V70.6532H334.685V451.336H379.082V261.368H579.402L579.509 451.336H984.632L971.505 421.027Z" fill="#EEE3D9"/>
<path d="M1136.07 570.224V510.139H1168.09C1174.31 509.693 1180.53 511.025 1186.02 513.981C1187.97 515.277 1189.54 517.066 1190.57 519.165C1191.6 521.265 1192.05 523.601 1191.89 525.934C1191.82 528.893 1190.72 531.734 1188.77 533.959C1186.81 536.183 1184.14 537.65 1181.22 538.1C1185.08 538.24 1188.72 539.9 1191.36 542.72C1194 545.539 1195.42 549.288 1195.3 553.149C1195.33 555.593 1194.76 558.008 1193.65 560.184C1192.53 562.36 1190.9 564.231 1188.9 565.635C1183.66 569.064 1177.43 570.676 1171.18 570.224H1136.07ZM1142.05 515.048V536.393H1171.08C1174.81 536.451 1178.49 535.531 1181.75 533.725C1183.07 532.836 1184.15 531.637 1184.9 530.231C1185.65 528.826 1186.04 527.259 1186.04 525.667C1186.04 524.075 1185.65 522.508 1184.9 521.103C1184.15 519.698 1183.07 518.498 1181.75 517.61C1177.61 515.473 1172.95 514.513 1168.3 514.835L1142.05 515.048ZM1171.18 565.208C1182.71 565.208 1188.47 561.153 1188.47 553.042C1188.65 551.375 1188.39 549.69 1187.72 548.154C1187.04 546.619 1185.98 545.287 1184.63 544.29C1180.62 542.215 1176.11 541.292 1171.61 541.622H1141.94V565.635L1171.18 565.208Z" fill="#EEE3D9"/>
<path d="M1205.98 570.227V528.178H1211.53V537.996C1212.52 534.963 1214.5 532.348 1217.15 530.569C1219.8 528.79 1222.96 527.948 1226.15 528.178H1235.43V533.621H1226.25C1224.1 533.547 1221.96 533.91 1219.96 534.688C1218.37 535.27 1216.94 536.221 1215.8 537.463C1214.64 538.787 1213.8 540.356 1213.34 542.052C1212.8 544.011 1212.4 546.009 1212.17 548.028C1212.04 550.517 1212.04 553.01 1212.17 555.499V570.76L1205.98 570.227Z" fill="#EEE3D9"/>
<path d="M1240.66 559.767C1240.64 558.195 1241.05 556.646 1241.84 555.285C1242.66 553.841 1243.83 552.629 1245.25 551.763C1246.76 550.771 1248.32 549.88 1249.95 549.095C1251.82 548.196 1253.79 547.515 1255.82 547.067L1262.01 545.68L1268.3 544.826H1273.85H1278.34H1280.68C1280.83 543.063 1280.54 541.292 1279.83 539.672C1279.12 538.051 1278.02 536.631 1276.63 535.541C1273.08 533.252 1268.88 532.201 1264.67 532.553C1262.23 532.528 1259.79 532.815 1257.42 533.407C1255.75 533.863 1254.16 534.584 1252.72 535.541C1251.86 536.277 1251.07 537.1 1250.37 537.996C1249.85 538.609 1249.48 539.342 1249.31 540.13V540.984H1243.12C1243.12 540.344 1243.12 539.703 1243.12 539.063C1243.6 537.984 1244.17 536.948 1244.82 535.968C1245.7 534.506 1246.86 533.236 1248.24 532.233C1250.21 530.963 1252.37 530.025 1254.64 529.458C1257.83 528.55 1261.14 528.119 1264.46 528.177C1278.98 528.177 1285.81 533.833 1285.81 545.039V563.182C1285.57 563.984 1285.57 564.836 1285.81 565.637C1286.48 566.04 1287.26 566.226 1288.05 566.171H1291.89V571.187H1288.05C1285.68 571.382 1283.31 570.781 1281.32 569.479C1279.91 567.662 1279.26 565.365 1279.51 563.076V562.008C1277.09 565.256 1273.85 567.798 1270.12 569.372C1265.81 571.227 1261.15 572.136 1256.46 572.04C1251.92 572.364 1247.38 571.324 1243.44 569.052C1242.04 568.186 1240.9 566.974 1240.11 565.534C1239.33 564.094 1238.93 562.475 1238.95 560.835L1240.66 559.767ZM1250.16 564.89C1252.83 566.132 1255.76 566.717 1258.7 566.598C1264.03 566.607 1269.27 565.286 1273.96 562.756C1276.05 561.853 1277.84 560.366 1279.11 558.473C1280.38 556.58 1281.07 554.361 1281.11 552.083V547.708H1275.99H1269.16C1266.5 547.969 1263.86 548.397 1261.26 548.988C1259.02 548.988 1256.67 550.269 1254.32 551.016C1252.12 551.809 1250.17 553.172 1248.67 554.965C1248.06 555.519 1247.57 556.194 1247.24 556.948C1246.91 557.702 1246.74 558.517 1246.74 559.34C1246.64 560.51 1246.91 561.683 1247.53 562.683C1248.15 563.683 1249.07 564.457 1250.16 564.89Z" fill="#EEE3D9"/>
<path d="M1303.42 528.174H1309.07V537.672C1310.44 534.58 1312.76 532.002 1315.69 530.308C1319.25 528.226 1323.31 527.156 1327.43 527.213C1342.05 527.213 1349.41 534.043 1349.41 547.597V570.223H1343.65V547.597C1343.65 536.925 1337.99 532.016 1326.79 532.016C1322.02 531.761 1317.33 533.325 1313.66 536.391C1312 538.064 1310.71 540.071 1309.88 542.279C1309.06 544.487 1308.71 546.845 1308.86 549.198V570.543H1302.99L1303.42 528.174Z" fill="#EEE3D9"/>
<path d="M1359.87 549.308C1359.78 546.288 1360.37 543.286 1361.61 540.53C1362.85 537.774 1364.7 535.338 1367.02 533.406C1372.4 529.04 1379.21 526.833 1386.13 527.216C1389.88 527.037 1393.63 527.779 1397.03 529.379C1400.44 530.979 1403.4 533.387 1405.66 536.395V510.141H1411.53V570.226H1405.98V561.368C1403.89 564.383 1401.06 566.809 1397.76 568.412C1394.23 570.231 1390.31 571.148 1386.34 571.08H1385.59C1378.9 571.421 1372.3 569.337 1367.02 565.21C1364.68 563.294 1362.82 560.861 1361.57 558.101C1360.33 555.342 1359.75 552.332 1359.87 549.308ZM1371.83 561.795C1375.94 564.978 1381.03 566.637 1386.23 566.491C1391.45 566.716 1396.56 564.962 1400.53 561.581C1402.29 560.066 1403.69 558.179 1404.63 556.056C1405.58 553.934 1406.03 551.629 1405.98 549.308C1406.06 546.947 1405.62 544.597 1404.7 542.422C1403.78 540.246 1402.39 538.299 1400.64 536.715C1396.59 533.402 1391.46 531.693 1386.23 531.912C1380.99 531.714 1375.85 533.377 1371.72 536.608C1369.8 538.104 1368.26 540.037 1367.24 542.246C1366.22 544.455 1365.74 546.877 1365.85 549.308C1365.75 551.719 1366.25 554.116 1367.29 556.291C1368.33 558.467 1369.89 560.356 1371.83 561.795Z" fill="#EEE3D9"/>
<path d="M1459.66 552.078C1459.61 552.325 1459.61 552.578 1459.66 552.825L1460.3 554.853C1460.69 555.797 1461.19 556.693 1461.79 557.521C1462.53 558.672 1463.47 559.684 1464.57 560.509C1465.92 561.641 1467.43 562.575 1469.05 563.284C1471.19 564.254 1473.45 564.936 1475.77 565.311C1478.77 565.852 1481.8 566.102 1484.85 566.059C1488.97 566.136 1493.1 565.706 1497.12 564.778C1499.87 564.227 1502.46 563.059 1504.7 561.363C1506.15 560.167 1507.38 558.722 1508.32 557.094C1508.96 555.832 1509.33 554.45 1509.39 553.038C1509.41 551.662 1509.07 550.305 1508.39 549.105C1507.72 547.905 1506.74 546.906 1505.55 546.208C1502.62 544.287 1499.31 543.047 1495.84 542.579L1483.03 540.552L1470.12 538.31C1466.5 537.72 1463.04 536.374 1459.98 534.362C1458.7 533.551 1457.63 532.454 1456.85 531.157C1456.07 529.86 1455.61 528.399 1455.5 526.891C1455.44 526.466 1455.44 526.036 1455.5 525.61C1455.55 523.116 1456.28 520.683 1457.62 518.576C1458.95 516.469 1460.84 514.768 1463.07 513.657C1469.66 510.283 1477.03 508.735 1484.42 509.175C1489.06 509.098 1493.69 509.636 1498.19 510.776C1501.27 511.414 1504.23 512.569 1506.94 514.191C1508.69 515.405 1510.21 516.923 1511.42 518.673C1512.31 519.787 1513 521.052 1513.45 522.409C1513.52 523.011 1513.52 523.621 1513.45 524.223H1507.15C1507.18 523.868 1507.18 523.511 1507.15 523.156C1506.77 522.274 1506.26 521.448 1505.66 520.701C1504.64 519.488 1503.41 518.474 1502.03 517.713C1499.88 516.572 1497.58 515.745 1495.2 515.258C1491.68 514.545 1488.11 514.187 1484.53 514.191C1478.82 513.87 1473.13 515.008 1467.98 517.499C1466.37 518.157 1464.97 519.257 1463.95 520.673C1462.93 522.089 1462.33 523.763 1462.22 525.504V526.571C1462.48 527.773 1463.03 528.891 1463.84 529.823C1464.64 530.755 1465.66 531.471 1466.81 531.907C1470.19 533.419 1473.79 534.356 1477.48 534.682C1481.43 534.682 1485.7 535.749 1490.29 536.496C1494.88 537.243 1499.15 538.097 1503.09 539.057C1506.72 539.824 1510.08 541.557 1512.81 544.073C1514.06 545.18 1515.05 546.546 1515.71 548.076C1516.37 549.607 1516.69 551.264 1516.65 552.932C1516.71 555.699 1516 558.428 1514.58 560.806C1513.16 563.185 1511.11 565.116 1508.64 566.379C1501.62 569.947 1493.77 571.568 1485.91 571.075C1481.08 571.186 1476.26 570.575 1471.61 569.26C1468.24 568.386 1465.06 566.903 1462.22 564.885C1460.25 563.368 1458.55 561.528 1457.2 559.442C1456.21 557.994 1455.41 556.413 1454.86 554.746C1454.75 553.859 1454.75 552.964 1454.86 552.078H1459.66Z" fill="#EEE3D9"/>
<path d="M1522.63 528.177H1531.48V515.797H1536.82V528.177H1555.18V533.62H1536.82V562.755C1536.72 563.592 1536.95 564.435 1537.46 565.103C1537.46 565.103 1538.53 565.743 1539.7 565.743H1554.75V570.76H1539.7C1537.33 570.955 1534.97 570.354 1532.98 569.052C1532.24 568.191 1531.69 567.188 1531.36 566.104C1531.03 565.021 1530.93 563.881 1531.06 562.755V533.62H1522.2L1522.63 528.177Z" fill="#EEE3D9"/>
<path d="M1566.28 570.223V528.174H1571.93V537.993C1572.89 534.957 1574.84 532.335 1577.48 530.552C1580.11 528.769 1583.27 527.931 1586.45 528.174H1595.84V533.617H1586.55C1584.44 533.552 1582.33 533.915 1580.36 534.684C1578.75 535.206 1577.3 536.166 1576.2 537.459C1575.05 538.784 1574.21 540.353 1573.75 542.048C1573.15 543.995 1572.76 545.997 1572.57 548.025C1572.45 550.513 1572.45 553.007 1572.57 555.495V570.757L1566.28 570.223Z" fill="#EEE3D9"/>
<path d="M1600.85 559.767C1600.78 558.189 1601.19 556.625 1602.03 555.285C1602.85 553.841 1604.02 552.629 1605.44 551.763C1606.93 550.749 1608.5 549.857 1610.14 549.095C1612 548.178 1613.98 547.497 1616.01 547.067L1622.2 545.68L1628.5 544.826H1633.94H1638.53H1641.3C1641.45 543.063 1641.15 541.292 1640.45 539.672C1639.74 538.051 1638.64 536.631 1637.25 535.541C1633.7 533.267 1629.5 532.217 1625.29 532.553C1622.81 532.535 1620.34 532.822 1617.93 533.407C1616.29 533.861 1614.74 534.583 1613.34 535.541C1612.45 536.248 1611.66 537.074 1610.99 537.996C1610.47 538.609 1610.1 539.342 1609.93 540.13V540.984H1603.74C1603.69 540.345 1603.69 539.702 1603.74 539.063C1604.16 537.979 1604.7 536.942 1605.34 535.968C1606.28 534.525 1607.47 533.26 1608.86 532.233C1610.82 530.945 1612.98 530.006 1615.26 529.458C1618.45 528.55 1621.76 528.119 1625.08 528.177C1639.49 528.177 1646.42 533.833 1646.42 545.039V563.182C1646.19 563.984 1646.19 564.836 1646.42 565.637C1647.1 566.04 1647.88 566.226 1648.67 566.171H1654.22V571.187H1650.27C1647.93 571.358 1645.61 570.758 1643.65 569.479C1642.92 568.594 1642.39 567.568 1642.08 566.467C1641.76 565.365 1641.68 564.21 1641.84 563.076V562.008C1639.42 565.256 1636.17 567.798 1632.44 569.372C1628.1 571.226 1623.4 572.135 1618.68 572.04C1614.14 572.339 1609.61 571.3 1605.66 569.052C1604.29 568.166 1603.17 566.946 1602.41 565.509C1601.64 564.071 1601.25 562.463 1601.28 560.835L1600.85 559.767ZM1610.35 564.89C1613.02 566.132 1615.95 566.717 1618.89 566.598C1624.22 566.607 1629.46 565.286 1634.15 562.756C1636.24 561.853 1638.03 560.366 1639.3 558.473C1640.57 556.58 1641.26 554.361 1641.3 552.083V547.708H1636.18H1629.35C1626.69 547.969 1624.05 548.397 1621.45 548.988C1619.1 548.988 1616.86 550.269 1614.51 551.016C1612.48 551.597 1610.61 552.659 1609.07 554.111C1608.43 554.646 1607.92 555.315 1607.57 556.072C1607.22 556.828 1607.04 557.653 1607.04 558.487C1606.77 559.827 1607 561.222 1607.69 562.403C1608.37 563.585 1609.48 564.471 1610.78 564.89H1610.35Z" fill="#EEE3D9"/>
<path d="M1656.88 528.177H1665.74V515.797H1671.61V528.177H1689.86V533.62H1671.61V562.755C1671.61 563.929 1671.61 564.676 1672.15 565.103C1672.68 565.53 1673.21 565.743 1674.39 565.743H1689.54V570.76H1674.39C1672.02 570.955 1669.65 570.354 1667.66 569.052C1666.93 568.191 1666.37 567.188 1666.04 566.104C1665.71 565.021 1665.61 563.881 1665.74 562.755V533.62H1656.88V528.177Z" fill="#EEE3D9"/>
<path d="M1696.16 549.309C1696.03 546.32 1696.56 543.34 1697.7 540.575C1698.84 537.811 1700.58 535.328 1702.77 533.3C1707.89 529.001 1714.46 526.824 1721.13 527.217C1724.77 527.183 1728.38 527.798 1731.8 529.031C1734.7 529.987 1737.36 531.552 1739.59 533.62C1741.26 535.422 1742.63 537.475 1743.65 539.704C1744.53 541.5 1745.17 543.401 1745.57 545.36C1745.66 546.639 1745.66 547.923 1745.57 549.202C1745.57 549.842 1745.57 550.59 1745.57 551.23H1701.92C1702.05 553.266 1702.57 555.257 1703.47 557.088C1704.37 558.92 1705.62 560.556 1707.15 561.902C1711.12 565.016 1716.09 566.572 1721.13 566.278C1723.75 566.443 1726.37 566.228 1728.92 565.638C1730.75 565.158 1732.49 564.363 1734.04 563.29C1735.14 562.474 1736.14 561.544 1737.03 560.515C1737.73 559.86 1738.28 559.058 1738.63 558.167V557.206H1744.72V558.7C1744.13 559.889 1743.45 561.031 1742.69 562.116C1741.54 563.715 1740.17 565.151 1738.63 566.385C1736.56 567.926 1734.2 569.05 1731.7 569.693C1728.25 570.809 1724.64 571.315 1721.02 571.187C1714.42 571.569 1707.92 569.476 1702.77 565.317C1700.55 563.308 1698.81 560.829 1697.66 558.06C1696.52 555.29 1696 552.301 1696.16 549.309ZM1739.59 546.427C1739.66 544.41 1739.28 542.403 1738.46 540.556C1737.65 538.708 1736.43 537.067 1734.9 535.755C1730.98 532.612 1726.03 531.051 1721.02 531.379C1716.02 531.082 1711.08 532.64 1707.15 535.755C1705.59 537.088 1704.32 538.719 1703.4 540.552C1702.49 542.385 1701.95 544.382 1701.81 546.427H1739.59Z" fill="#EEE3D9"/>
<path d="M1754 549.306C1753.93 546.342 1754.52 543.399 1755.72 540.687C1756.92 537.976 1758.7 535.562 1760.94 533.617C1766.33 529.278 1773.13 527.074 1780.04 527.427C1783.91 527.214 1787.77 527.983 1791.26 529.662C1794.75 531.342 1797.75 533.877 1800 537.032V528.388H1805.55V579.508C1805.68 580.634 1805.58 581.774 1805.25 582.858C1804.92 583.941 1804.37 584.945 1803.63 585.805C1801.64 587.107 1799.27 587.708 1796.91 587.513H1757.42V582.497H1796.91C1797.69 582.552 1798.47 582.366 1799.15 581.963C1799.56 581.215 1799.75 580.361 1799.68 579.508V561.792C1797.58 564.717 1794.74 567.036 1791.46 568.516C1788.15 570.186 1784.5 571.063 1780.79 571.077H1780.04C1773.23 571.623 1766.44 569.69 1760.94 565.634C1758.6 563.637 1756.75 561.122 1755.55 558.288C1754.34 555.454 1753.81 552.379 1754 549.306ZM1759.98 549.306C1759.9 551.713 1760.41 554.104 1761.45 556.277C1762.49 558.45 1764.03 560.341 1765.96 561.792C1770.11 564.983 1775.24 566.642 1780.47 566.488C1785.68 566.652 1790.76 564.905 1794.77 561.579C1796.53 560.063 1797.93 558.176 1798.87 556.054C1799.81 553.932 1800.27 551.627 1800.21 549.306C1800.3 546.933 1799.86 544.571 1798.92 542.392C1797.98 540.213 1796.56 538.272 1794.77 536.712C1790.79 533.351 1785.67 531.634 1780.47 531.91C1775.2 531.704 1770.02 533.367 1765.85 536.606C1763.95 538.118 1762.43 540.055 1761.41 542.26C1760.39 544.465 1759.9 546.878 1759.98 549.306Z" fill="#EEE3D9"/>
<path d="M1816.12 528.172H1822.52L1840.13 564.991L1857.84 528.172H1864.25L1839.17 579.079C1838.26 581.274 1837.04 583.323 1835.54 585.162C1833.62 586.717 1831.17 587.481 1828.71 587.297H1816.97V582.281H1828.71C1829.44 582.475 1830.22 582.475 1830.95 582.281C1831.44 582.113 1831.89 581.818 1832.23 581.427C1832.62 580.805 1832.98 580.164 1833.3 579.506L1837.35 571.075L1816.12 528.172Z" fill="#EEE3D9"/>
<path d="M1167.02 642.156C1166.94 638.749 1168.08 635.426 1170.23 632.785C1172.39 630.144 1175.41 628.357 1178.76 627.748C1176.12 627.085 1173.77 625.56 1172.09 623.415C1170.41 621.27 1169.49 618.627 1169.48 615.902C1169.44 613.415 1170.1 610.968 1171.39 608.837C1172.67 606.706 1174.52 604.976 1176.73 603.842C1182.97 600.562 1189.98 599.049 1197.01 599.466C1201.41 599.361 1205.81 599.937 1210.03 601.174C1213.01 601.851 1215.82 603.161 1218.25 605.016C1219.91 606.355 1221.32 607.981 1222.41 609.818C1223.26 611.046 1223.88 612.421 1224.23 613.874C1224.31 614.548 1224.31 615.228 1224.23 615.902H1218.04C1218.06 615.44 1218.06 614.976 1218.04 614.514C1217.74 613.517 1217.27 612.578 1216.65 611.74C1215.74 610.424 1214.63 609.27 1213.34 608.324C1211.37 607.078 1209.21 606.175 1206.94 605.656C1203.67 604.749 1200.29 604.318 1196.91 604.376C1182.68 604.376 1175.56 608.218 1175.56 615.902C1175.66 618.337 1176.65 620.651 1178.34 622.412C1179.38 623.454 1180.63 624.267 1182.01 624.799C1183.39 625.332 1184.86 625.573 1186.34 625.507H1230.1V630.203H1224.23V651.014C1224.11 651.869 1224.3 652.74 1224.76 653.468C1225.49 653.721 1226.28 653.721 1227 653.468H1230.1V658.591H1227.32C1224.97 658.822 1222.61 658.176 1220.7 656.777C1219.96 655.92 1219.41 654.917 1219.08 653.832C1218.75 652.748 1218.65 651.606 1218.78 650.48V648.879C1216.61 652.501 1213.42 655.398 1209.61 657.204C1205.28 659.299 1200.54 660.393 1195.73 660.405C1188.54 660.76 1181.39 659.057 1175.13 655.496C1172.72 654.191 1170.7 652.268 1169.27 649.924C1167.85 647.58 1167.07 644.899 1167.02 642.156ZM1173.43 642.156C1173.37 644.14 1173.87 646.101 1174.87 647.817C1175.87 649.532 1177.33 650.935 1179.08 651.868C1184.13 654.558 1189.8 655.848 1195.52 655.603C1201.47 655.813 1207.34 654.132 1212.27 650.8C1214.23 649.488 1215.84 647.708 1216.93 645.621C1218.03 643.534 1218.6 641.206 1218.57 638.847V630.95H1186.55C1183.03 630.755 1179.55 631.814 1176.73 633.938C1175.74 635.025 1174.97 636.307 1174.5 637.703C1174.02 639.099 1173.84 640.579 1173.96 642.049L1173.43 642.156Z" fill="#EEE3D9"/>
<path d="M1314.51 599.466C1323.27 598.91 1331.9 601.823 1338.53 607.577C1344.08 613.509 1347.17 621.33 1347.17 629.455C1347.17 637.58 1344.08 645.401 1338.53 651.333C1331.9 657.105 1323.29 660.054 1314.51 659.551H1282.5V599.466H1314.51ZM1314.51 654.535C1318.6 654.592 1322.66 653.868 1326.47 652.4C1329.67 651.23 1332.56 649.33 1334.9 646.851C1336.92 644.52 1338.51 641.845 1339.59 638.953C1340.68 635.942 1341.22 632.762 1341.2 629.562C1341.51 622.808 1339.13 616.205 1334.58 611.205C1331.86 608.777 1328.69 606.921 1325.24 605.748C1321.79 604.574 1318.15 604.107 1314.51 604.375H1289.01V654.535H1314.51Z" fill="#EEE3D9"/>
<path d="M1355.39 638.637C1355.31 635.654 1355.86 632.689 1357 629.931C1358.14 627.174 1359.85 624.686 1362.01 622.628C1367.12 618.329 1373.69 616.153 1380.36 616.545C1384 616.512 1387.61 617.126 1391.04 618.359C1393.78 619.271 1396.29 620.764 1398.4 622.735C1400.06 624.536 1401.43 626.59 1402.45 628.818C1403.38 630.595 1404.03 632.502 1404.38 634.475C1404.46 635.754 1404.46 637.038 1404.38 638.317C1404.38 638.957 1404.38 639.704 1404.38 640.345H1360.73C1360.87 642.387 1361.42 644.381 1362.33 646.212C1363.25 648.043 1364.52 649.676 1366.06 651.017C1369.98 654.15 1374.93 655.711 1379.94 655.393C1382.5 655.398 1385.05 655.039 1387.51 654.325C1389.36 653.89 1391.1 653.092 1392.64 651.977C1393.73 651.162 1394.73 650.232 1395.62 649.203C1396.32 648.547 1396.87 647.746 1397.23 646.855V645.894H1403.31V647.388C1402.72 648.577 1402.04 649.718 1401.28 650.803C1400.13 652.403 1398.76 653.839 1397.23 655.072C1395.18 656.595 1392.86 657.718 1390.4 658.381C1386.95 659.478 1383.34 659.984 1379.72 659.875C1373.12 660.257 1366.61 658.164 1361.47 654.005C1359.43 652.018 1357.83 649.622 1356.78 646.973C1355.74 644.324 1355.26 641.483 1355.39 638.637ZM1399.04 635.755C1399.08 633.732 1398.67 631.725 1397.84 629.879C1397.01 628.033 1395.78 626.395 1394.24 625.083C1390.32 621.94 1385.37 620.379 1380.36 620.707C1375.36 620.41 1370.42 621.968 1366.49 625.083C1364.94 626.424 1363.67 628.057 1362.76 629.888C1361.84 631.719 1361.3 633.713 1361.15 635.755H1399.04Z" fill="#EEE3D9"/>
<path d="M1412.59 646.851H1418.68C1418.59 647.201 1418.59 647.568 1418.68 647.918C1419.02 648.657 1419.41 649.37 1419.85 650.053C1420.56 651.068 1421.43 651.968 1422.41 652.721C1423.96 653.69 1425.65 654.41 1427.43 654.855C1429.96 655.575 1432.58 655.934 1435.22 655.923C1439.47 656.135 1443.72 655.331 1447.6 653.575C1448.79 653.083 1449.82 652.259 1450.56 651.199C1451.3 650.139 1451.71 648.889 1451.76 647.598C1451.65 646.454 1451.19 645.371 1450.45 644.494C1449.7 643.617 1448.71 642.987 1447.6 642.689C1444.57 641.424 1441.37 640.632 1438.1 640.341L1427.43 638.847C1424.13 638.435 1420.94 637.384 1418.04 635.752C1416.82 635.099 1415.8 634.13 1415.09 632.947C1414.37 631.764 1413.99 630.41 1413.98 629.028C1414.13 627.284 1414.7 625.603 1415.65 624.133C1416.6 622.663 1417.89 621.448 1419.42 620.597C1424.15 617.89 1429.57 616.628 1435.01 616.968C1438.21 616.936 1441.4 617.331 1444.5 618.142C1446.66 618.645 1448.72 619.511 1450.59 620.704C1451.96 621.617 1453.15 622.774 1454.11 624.119C1454.8 625.005 1455.37 625.973 1455.82 627C1455.82 627 1455.82 628.068 1455.82 628.601H1449.63C1449.66 628.318 1449.66 628.031 1449.63 627.747C1449.34 627.113 1448.94 626.535 1448.45 626.04C1447.8 625.196 1447.01 624.473 1446.1 623.905C1444.71 623.11 1443.2 622.534 1441.62 622.198C1439.39 621.618 1437.1 621.331 1434.79 621.344C1431.12 621.241 1427.47 621.97 1424.12 623.479C1422.98 623.868 1421.98 624.58 1421.24 625.527C1420.51 626.475 1420.06 627.617 1419.96 628.815C1420.05 629.64 1420.37 630.423 1420.88 631.081C1421.39 631.739 1422.07 632.247 1422.84 632.55C1425.04 633.642 1427.43 634.295 1429.88 634.471L1438.95 635.752C1442.26 635.752 1445.36 636.819 1448.13 637.459C1450.78 637.993 1453.25 639.207 1455.28 640.981C1456.23 641.754 1456.99 642.731 1457.51 643.84C1458.03 644.949 1458.29 646.161 1458.27 647.385C1458.25 649.258 1457.73 651.092 1456.78 652.703C1455.82 654.314 1454.46 655.645 1452.83 656.563C1447.56 659.383 1441.6 660.642 1435.65 660.191C1432.05 660.27 1428.45 659.838 1424.97 658.911C1422.57 658.234 1420.29 657.151 1418.25 655.709C1416.85 654.582 1415.63 653.251 1414.62 651.76C1413.86 650.714 1413.25 649.564 1412.81 648.345C1412.68 647.856 1412.61 647.355 1412.59 646.851Z" fill="#EEE3D9"/>
<path d="M1468.73 602.879C1468.72 602.303 1468.83 601.732 1469.05 601.2C1469.27 600.669 1469.6 600.187 1470.01 599.784C1470.42 599.344 1470.92 598.994 1471.47 598.754C1472.02 598.514 1472.61 598.391 1473.21 598.391C1473.81 598.391 1474.41 598.514 1474.96 598.754C1475.51 598.994 1476 599.344 1476.41 599.784C1476.83 600.187 1477.15 600.669 1477.37 601.2C1477.59 601.732 1477.7 602.303 1477.69 602.879C1477.69 604.068 1477.22 605.208 1476.38 606.048C1475.54 606.889 1474.4 607.361 1473.21 607.361C1472.02 607.361 1470.88 606.889 1470.04 606.048C1469.2 605.208 1468.73 604.068 1468.73 602.879ZM1476.2 617.5V659.549H1470.33V617.5H1476.2Z" fill="#EEE3D9"/>
<path d="M1488.37 638.741C1488.25 635.704 1488.84 632.68 1490.08 629.905C1491.32 627.129 1493.18 624.675 1495.52 622.733C1500.89 618.366 1507.71 616.159 1514.62 616.543C1518.47 616.318 1522.32 617.082 1525.8 618.763C1529.27 620.444 1532.26 622.987 1534.47 626.148V617.503H1540.13V668.624C1540.26 669.757 1540.15 670.906 1539.8 671.992C1539.45 673.077 1538.87 674.076 1538.1 674.921C1536.13 676.271 1533.75 676.877 1531.38 676.628H1491.89V671.612H1531.38C1532.1 671.864 1532.89 671.864 1533.62 671.612C1534.13 670.902 1534.36 670.027 1534.26 669.158V651.015C1532.13 653.912 1529.3 656.225 1526.04 657.738C1522.56 659.463 1518.72 660.341 1514.83 660.299H1514.09C1507.4 660.622 1500.81 658.54 1495.52 654.43C1493.2 652.542 1491.35 650.144 1490.11 647.422C1488.87 644.701 1488.27 641.73 1488.37 638.741ZM1494.34 638.741C1494.26 641.123 1494.75 643.49 1495.78 645.644C1496.8 647.797 1498.32 649.675 1500.21 651.121C1504.37 654.296 1509.5 655.953 1514.73 655.817C1519.94 656.042 1525.05 654.289 1529.03 650.908C1530.79 649.392 1532.19 647.505 1533.13 645.383C1534.07 643.26 1534.53 640.956 1534.47 638.635C1534.55 636.274 1534.12 633.923 1533.2 631.748C1532.27 629.573 1530.89 627.625 1529.14 626.041C1525.08 622.728 1519.96 621.019 1514.73 621.239C1509.49 621.04 1504.35 622.704 1500.21 625.934C1498.25 627.424 1496.67 629.365 1495.61 631.594C1494.55 633.824 1494.04 636.275 1494.13 638.741H1494.34Z" fill="#EEE3D9"/>
<path d="M1553.36 617.502H1558.91V627C1560.36 623.928 1562.71 621.362 1565.64 619.636C1569.19 617.554 1573.25 616.484 1577.37 616.541C1592.1 616.541 1599.47 623.372 1599.47 636.925V659.551H1593.6V636.925C1593.6 626.253 1588.05 621.344 1576.84 621.344C1572.07 621.09 1567.38 622.653 1563.71 625.719C1562.05 627.392 1560.76 629.399 1559.94 631.607C1559.11 633.815 1558.76 636.173 1558.91 638.526V659.871H1553.04L1553.36 617.502Z" fill="#EEE3D9"/>
<path d="M1647.17 641.411C1647.17 641.411 1647.17 641.411 1647.17 642.158L1647.81 644.185C1648.2 645.13 1648.71 646.025 1649.31 646.854C1650.05 648.005 1650.99 649.017 1652.08 649.842C1653.44 650.974 1654.95 651.908 1656.56 652.617C1658.71 653.587 1660.97 654.269 1663.29 654.644C1666.28 655.185 1669.32 655.435 1672.36 655.391C1676.52 655.462 1680.68 655.032 1684.74 654.111C1687.45 653.537 1690 652.371 1692.21 650.696C1693.66 649.5 1694.89 648.054 1695.84 646.427C1696.48 645.165 1696.84 643.783 1696.91 642.371C1696.93 640.995 1696.58 639.638 1695.91 638.438C1695.23 637.238 1694.25 636.238 1693.06 635.541C1690.15 633.603 1686.82 632.361 1683.35 631.912L1670.54 629.884L1657.63 627.643C1653.83 627.126 1650.18 625.778 1646.96 623.694C1645.68 622.884 1644.61 621.787 1643.83 620.49C1643.05 619.193 1642.59 617.732 1642.48 616.224C1642.42 615.799 1642.42 615.368 1642.48 614.943C1642.53 612.449 1643.26 610.016 1644.6 607.909C1645.93 605.802 1647.82 604.101 1650.05 602.99C1656.64 599.625 1664.01 598.078 1671.4 598.508C1676 598.43 1680.6 598.968 1685.06 600.109C1688.15 600.747 1691.11 601.902 1693.81 603.524C1695.57 604.766 1697.12 606.279 1698.4 608.006C1699.23 609.145 1699.88 610.405 1700.32 611.741C1700.39 612.344 1700.39 612.953 1700.32 613.556H1693.92C1693.95 613.201 1693.95 612.844 1693.92 612.489C1693.53 611.607 1693.03 610.781 1692.42 610.034C1691.43 608.847 1690.23 607.836 1688.9 607.046C1686.71 605.925 1684.37 605.1 1681.96 604.591C1678.45 603.878 1674.88 603.52 1671.29 603.524C1665.55 603.203 1659.82 604.341 1654.64 606.832C1653.03 607.49 1651.63 608.59 1650.61 610.006C1649.59 611.421 1648.99 613.096 1648.88 614.836C1648.83 615.191 1648.83 615.549 1648.88 615.904C1649.1 617.105 1649.63 618.229 1650.41 619.165C1651.2 620.101 1652.22 620.816 1653.36 621.24C1656.75 622.737 1660.35 623.674 1664.03 624.015C1667.98 624.015 1672.25 625.082 1676.95 625.829C1681.64 626.576 1685.81 627.43 1689.65 628.39C1693.29 629.137 1696.65 630.872 1699.36 633.406C1700.6 634.517 1701.59 635.884 1702.25 637.414C1702.92 638.943 1703.24 640.598 1703.2 642.264C1703.27 645.032 1702.55 647.761 1701.13 650.139C1699.72 652.517 1697.66 654.449 1695.2 655.712C1688.18 659.28 1680.33 660.901 1672.47 660.407C1667.64 660.511 1662.82 659.9 1658.16 658.593C1654.82 657.744 1651.66 656.259 1648.88 654.217C1646.85 652.733 1645.12 650.888 1643.76 648.775C1642.76 647.327 1641.97 645.746 1641.41 644.079C1641.3 643.193 1641.3 642.296 1641.41 641.411H1647.17Z" fill="#EEE3D9"/>
<path d="M1710.14 617.505H1719V605.125H1724.76V617.505H1743.12V622.414H1724.76V651.55C1724.66 652.386 1724.89 653.23 1725.4 653.898C1725.4 653.898 1726.47 654.538 1727.64 654.538H1742.8V659.554H1727.64C1725.27 659.749 1722.91 659.148 1720.92 657.846C1720.18 656.986 1719.63 655.982 1719.3 654.899C1718.97 653.815 1718.87 652.675 1719 651.55V622.414H1710.14V617.505Z" fill="#EEE3D9"/>
<path d="M1752.72 641.198V617.505H1758.48V641.198C1758.48 650.91 1763.93 655.712 1774.71 655.712C1779.22 655.87 1783.63 654.262 1786.98 651.23C1788.62 649.61 1789.9 647.658 1790.73 645.505C1791.56 643.351 1791.92 641.046 1791.78 638.743V617.398H1797.65V659.554H1792.1V649.629C1790.69 652.656 1788.47 655.239 1785.7 657.1C1782.55 659.23 1778.83 660.381 1775.03 660.408C1760.16 660.408 1752.72 654.005 1752.72 641.198Z" fill="#EEE3D9"/>
<path d="M1808.32 638.743C1808.21 635.705 1808.8 632.682 1810.04 629.907C1811.28 627.131 1813.14 624.677 1815.48 622.734C1820.85 618.368 1827.66 616.161 1834.58 616.545C1838.34 616.365 1842.08 617.107 1845.48 618.707C1848.89 620.307 1851.85 622.716 1854.11 625.723V599.469H1860.09V659.554H1854.43V651.016C1852.34 654.031 1849.51 656.457 1846.21 658.06C1842.68 659.879 1838.76 660.796 1834.79 660.728H1834.05C1827.35 661.051 1820.77 658.969 1815.48 654.858C1813.1 652.927 1811.21 650.459 1809.97 647.659C1808.72 644.858 1808.16 641.803 1808.32 638.743ZM1820.28 651.016C1824.4 654.191 1829.49 655.849 1834.69 655.712C1839.9 655.948 1845.01 654.193 1848.99 650.803C1850.75 649.287 1852.15 647.4 1853.09 645.278C1854.03 643.155 1854.49 640.851 1854.43 638.53C1854.51 636.169 1854.07 633.818 1853.15 631.643C1852.23 629.468 1850.85 627.52 1849.09 625.936C1845.04 622.623 1839.91 620.914 1834.69 621.134C1829.44 620.935 1824.3 622.599 1820.17 625.829C1818.24 627.342 1816.7 629.293 1815.68 631.521C1814.66 633.749 1814.19 636.188 1814.3 638.636C1814.22 641.03 1814.71 643.409 1815.76 645.566C1816.8 647.724 1818.35 649.594 1820.28 651.016Z" fill="#EEE3D9"/>
<path d="M1873.32 602.883C1873.31 602.308 1873.42 601.737 1873.64 601.205C1873.86 600.673 1874.19 600.191 1874.6 599.788C1875 599.333 1875.49 598.973 1876.04 598.733C1876.6 598.493 1877.2 598.379 1877.8 598.401C1878.4 598.4 1879 598.523 1879.55 598.762C1880.1 599 1880.59 599.35 1881 599.788C1881.41 600.191 1881.74 600.673 1881.96 601.205C1882.18 601.737 1882.29 602.308 1882.28 602.883C1882.3 603.476 1882.19 604.065 1881.97 604.616C1881.75 605.166 1881.42 605.666 1881 606.085C1880.14 606.903 1878.99 607.36 1877.8 607.366C1877.21 607.38 1876.62 607.275 1876.07 607.054C1875.52 606.834 1875.02 606.505 1874.6 606.086C1874.18 605.666 1873.85 605.166 1873.63 604.616C1873.41 604.065 1873.3 603.476 1873.32 602.883ZM1880.79 617.505V659.554H1874.92V617.505H1880.79Z" fill="#EEE3D9"/>
<path d="M1900.21 622.731C1905.57 618.408 1912.33 616.205 1919.21 616.541C1926.15 616.259 1932.95 618.454 1938.42 622.731C1940.69 624.734 1942.51 627.198 1943.76 629.958C1945 632.718 1945.65 635.712 1945.65 638.74C1945.65 641.768 1945 644.762 1943.76 647.522C1942.51 650.282 1940.69 652.745 1938.42 654.748C1932.94 658.996 1926.13 661.153 1919.21 660.832C1912.35 661.149 1905.61 658.99 1900.21 654.748C1897.94 652.745 1896.12 650.282 1894.88 647.522C1893.63 644.762 1892.99 641.768 1892.99 638.74C1892.99 635.712 1893.63 632.718 1894.88 629.958C1896.12 627.198 1897.94 624.734 1900.21 622.731ZM1898.83 638.526C1898.74 640.893 1899.2 643.247 1900.16 645.411C1901.12 647.574 1902.56 649.49 1904.38 651.013C1908.66 654.201 1913.87 655.923 1919.21 655.923C1924.55 655.923 1929.76 654.201 1934.04 651.013C1935.82 649.441 1937.24 647.51 1938.21 645.349C1939.18 643.187 1939.69 640.844 1939.69 638.473C1939.69 636.103 1939.18 633.759 1938.21 631.598C1937.24 629.436 1935.82 627.505 1934.04 625.933C1929.75 622.817 1924.57 621.14 1919.26 621.14C1913.95 621.14 1908.78 622.817 1904.48 625.933C1902.65 627.467 1901.19 629.398 1900.21 631.579C1899.23 633.761 1898.75 636.136 1898.83 638.526Z" fill="#EEE3D9"/>
</svg>
