<svg width="800" height="800" viewBox="0 0 800 800" fill="none" xmlns="http://www.w3.org/2000/svg">
<path d="M379.242 16.2656C303.64 16.2414 229.715 38.5526 166.749 80.398C103.783 122.243 54.5819 181.758 25.3237 251.469L242.724 758.712C295.297 778.653 351.61 786.795 407.678 782.563C463.746 778.331 518.199 761.828 567.183 734.222C616.167 706.615 658.485 668.581 691.142 622.809C723.799 577.037 745.998 524.648 756.166 469.347C766.334 414.047 764.224 357.187 749.985 302.792C735.746 248.398 709.726 197.797 673.767 154.572C637.807 111.346 592.786 76.5524 541.891 52.6525C490.996 28.7525 435.47 16.3305 379.242 16.2656ZM499.338 591.805H482.379L376.787 346.242L338.647 452.755L351.386 482.069L316.7 591.805H299.818L156.854 261.292H287.309V265.052C257.305 269.657 281.17 319.46 281.17 319.46L331.971 437.407L344.556 402.414C360.671 356.832 354.609 305.647 335.117 261.292H438.945L536.71 487.287L499.338 591.805ZM567.252 365.273L522.283 261.292H608.46L567.252 365.273Z" fill="#EEE3D9"/>
</svg>
