<svg width="1528" height="1440" viewBox="0 0 1528 1440" fill="none" xmlns="http://www.w3.org/2000/svg">
<path d="M383.151 467.875C293.191 481.76 364.832 631.143 364.832 631.143L517.725 984.595L555.315 879.765C604.492 742.983 585.552 589.727 527.153 456.619H838.292L640.771 -5.98608e-05H0V456.619H383.151V467.875Z" fill="#0B2749"/>
<path d="M0 1440H417.919C126.279 758.388 25.848 531.147 0 473.299V1440Z" fill="#FF825A"/>
<path d="M537.722 1030.82L575.805 1118.86L474.194 1440H965.422L651.888 712.315L537.722 1030.82Z" fill="#201021"/>
<path d="M1346.54 456.618L1527.43 -0.00050189H890.693L1088.21 456.618H1346.54Z" fill="#0B2749"/>
<path d="M1131.43 1134.29L1022.03 1440H1263.68L1131.43 1134.29Z" fill="#0B2749"/>
<path d="M1088.21 456.618L890.693 -0.000531197H640.772L838.292 456.619L984.862 795.453L1263.68 1440H1513.6L1155.35 611.822L1088.21 456.618Z" fill="#FF825A"/>
<path d="M984.863 795.453L838.292 456.619H527.153C585.552 589.727 604.492 742.982 555.315 879.765L517.725 984.594L364.832 631.143C364.832 631.143 293.191 481.761 383.151 467.875V456.619H0V473.298C25.848 531.147 126.279 758.389 417.919 1440H474.195L575.805 1118.86L537.723 1030.82L651.888 712.315L965.423 1440H1022.03L1131.43 1134.29L984.863 795.453Z" fill="#EEE3D9"/>
<path d="M1088.21 456.618L1155.35 611.822L1223.05 768.328L1346.54 456.618H1088.21Z" fill="#EEE3D9"/>
</svg>
