<svg width="40" height="40" viewBox="0 0 40 40" fill="none" xmlns="http://www.w3.org/2000/svg">
<g clip-path="url(#clip0_11_132)">
<path d="M27.8828 0H11.4392C5.14762 0 0 5.09662 0 11.3259V28.6733C0 34.9025 5.14762 39.9992 11.4392 39.9992H27.8819C34.1736 39.9992 39.3212 34.9025 39.3212 28.6733V11.3259C39.322 5.09662 34.1744 0 27.8828 0ZM36.2989 28.6741C36.2989 30.8877 35.4196 32.9769 33.8237 34.557C32.2278 36.1371 30.1177 37.0076 27.8819 37.0076H11.4392C9.2035 37.0076 7.09336 36.1371 5.49748 34.557C3.9016 32.9769 3.02231 30.8877 3.02231 28.6741V11.3259C3.02231 9.11231 3.9016 7.02308 5.49748 5.44301C7.09336 3.86294 9.2035 2.99236 11.4392 2.99236H27.8819C30.1177 2.99236 32.2278 3.86294 33.8237 5.44301C35.4196 7.02308 36.2989 9.11231 36.2989 11.3259V28.6741Z" fill="#201021"/>
<path d="M19.7221 9.12488C13.7415 9.12488 8.89404 13.9243 8.89404 19.8456C8.89404 25.7669 13.7415 30.5664 19.7221 30.5664C25.7026 30.5664 30.5501 25.7669 30.5501 19.8456C30.5501 13.9243 25.7018 9.12488 19.7221 9.12488ZM19.6698 26.8746C15.7539 26.8746 12.5798 23.7319 12.5798 19.8548C12.5798 15.9777 15.7539 12.8351 19.6698 12.8351C23.5857 12.8351 26.7598 15.9777 26.7598 19.8548C26.7598 23.7311 23.5857 26.8746 19.6698 26.8746Z" fill="#201021"/>
<path d="M30.7238 11.4961C32.1397 11.4961 33.2875 10.3597 33.2875 8.95785C33.2875 7.55599 32.1397 6.41956 30.7238 6.41956C29.308 6.41956 28.1602 7.55599 28.1602 8.95785C28.1602 10.3597 29.308 11.4961 30.7238 11.4961Z" fill="#201021"/>
</g>
<defs>
<clipPath id="clip0_11_132">
<rect width="39.322" height="40" fill="white"/>
</clipPath>
</defs>
</svg>
