<svg width="303" height="94" viewBox="0 0 303 94" fill="none" xmlns="http://www.w3.org/2000/svg">
<path d="M182.002 0H162.942C166.52 8.15061 167.671 17.5467 164.676 25.918L162.327 32.3502L152.962 10.6888C152.962 10.6888 148.58 1.52923 154.082 0.677904V0H130.182L156.446 60.7118H159.599L165.905 40.5797L163.572 35.1722L170.572 15.6706L189.979 60.7118H193.132L200.006 41.5256L182.002 0Z" fill="#201021"/>
<path d="M278.28 0V0.677904C286.951 2.1283 286.431 8.90734 282.679 17.7832L277.87 28.1409L277.476 27.4315L268.206 11.6663C262.341 1.73417 263.997 0.993208 265.967 0.536017V0H242.43C242.43 0 250.801 14.4882 263.476 36.9064V55.2255C263.476 56.4799 262.978 57.6829 262.091 58.5698C261.204 59.4568 260.001 59.9551 258.747 59.9551V60.6488H283.546V59.9393C280.235 59.9393 280.519 56.9755 280.519 50.9689V38.3568C280.52 36.0201 280.142 33.6986 279.399 31.4831C280.031 29.0347 280.886 26.6494 281.953 24.3573L284.696 18.4926C292.469 2.34902 300.462 1.29275 302.842 0.630608V0H278.28Z" fill="#201021"/>
<path d="M251.873 52.8608C248.2 44.7101 229.014 0 229.014 0H228.541L219.444 22.9384L227.863 41.8566H212.098C205.445 57.0385 199.88 59.829 197.294 60.0024L197.042 60.6961H222.124V60.0024C211.782 60.0024 211.704 47.9262 213.422 43.9692H222.739C224.566 43.9668 226.355 44.4882 227.895 45.4718C229.435 46.4554 230.66 47.8598 231.426 49.5185L231.615 49.9127C231.615 49.9127 236.786 60.0024 229.897 60.0024V60.6961H258.7V60.0024C256.697 59.9236 254.884 59.561 251.873 52.8608Z" fill="#201021"/>
<path d="M205.586 19.0917L213.154 0H197.325L205.586 19.0917Z" fill="#FF825A"/>
<path d="M138.726 56.2345H87.3632V32.634L128.526 32.6497L126.587 28.1567H87.3632V4.47732H116.34L114.401 0H80.8206V28.1567H51.2136V0H0.433838V4.47732H19.1314V60.7118H25.6897V4.47732H44.6553V60.7118H51.2136V32.6497H80.8049L80.8206 60.7118H140.665L138.726 56.2345Z" fill="#201021"/>
<path d="M163.036 78.274V69.3982H167.766C168.685 69.3323 169.603 69.5291 170.414 69.9657C170.702 70.1571 170.934 70.4214 171.086 70.7316C171.238 71.0417 171.306 71.3867 171.281 71.7314C171.272 72.1685 171.108 72.5882 170.82 72.9168C170.532 73.2455 170.137 73.4621 169.705 73.5287C170.275 73.5492 170.814 73.7945 171.204 74.211C171.594 74.6275 171.803 75.1813 171.786 75.7516C171.79 76.1127 171.706 76.4694 171.541 76.7908C171.376 77.1122 171.136 77.3886 170.84 77.5961C170.065 78.1026 169.146 78.3407 168.223 78.274H163.036ZM163.919 70.1234V73.2764H168.207C168.758 73.285 169.302 73.1492 169.784 72.8823C169.979 72.751 170.139 72.5738 170.249 72.3663C170.36 72.1587 170.417 71.9272 170.417 71.692C170.417 71.4569 170.36 71.2253 170.249 71.0178C170.139 70.8102 169.979 70.633 169.784 70.5017C169.171 70.1861 168.484 70.0443 167.797 70.0918L163.919 70.1234ZM168.223 77.533C169.926 77.533 170.777 76.9339 170.777 75.7358C170.803 75.4895 170.765 75.2406 170.665 75.0138C170.566 74.787 170.409 74.5902 170.209 74.443C169.617 74.1365 168.951 74.0001 168.286 74.0489H163.903V77.5961L168.223 77.533Z" fill="#201021"/>
<path d="M173.363 78.2743V72.0628H174.182V73.5132C174.329 73.0651 174.621 72.679 175.013 72.4161C175.404 72.1533 175.872 72.0289 176.342 72.0628H177.714V72.8669H176.358C176.04 72.856 175.724 72.9096 175.428 73.0245C175.193 73.1105 174.983 73.251 174.813 73.4344C174.642 73.6301 174.518 73.8619 174.45 74.1123C174.37 74.4017 174.312 74.6969 174.277 74.9952C174.259 75.3628 174.259 75.7311 174.277 76.0987V78.3532L173.363 78.2743Z" fill="#201021"/>
<path d="M178.486 76.7293C178.483 76.497 178.543 76.2683 178.66 76.0671C178.781 75.8538 178.955 75.6748 179.164 75.5469C179.386 75.4004 179.618 75.2687 179.858 75.1528C180.134 75.0199 180.425 74.9194 180.725 74.8532L181.639 74.6483L182.569 74.5222H183.389H184.051H184.398C184.42 74.2618 184.376 74.0002 184.272 73.7607C184.167 73.5213 184.005 73.3117 183.799 73.1506C183.275 72.8125 182.655 72.6573 182.033 72.7092C181.672 72.7055 181.312 72.7479 180.961 72.8353C180.715 72.9027 180.481 73.0092 180.268 73.1506C180.14 73.2593 180.024 73.3808 179.921 73.5132C179.843 73.6037 179.789 73.712 179.763 73.8285V73.9546H178.849C178.849 73.86 178.849 73.7654 178.849 73.6708C178.92 73.5115 179.004 73.3585 179.101 73.2136C179.23 72.9977 179.402 72.8101 179.606 72.6619C179.896 72.4743 180.216 72.3358 180.551 72.252C181.023 72.1179 181.512 72.0541 182.002 72.0628C184.146 72.0628 185.155 72.8983 185.155 74.5537V77.2338C185.12 77.3522 185.12 77.478 185.155 77.5964C185.255 77.6559 185.37 77.6834 185.486 77.6752H186.053V78.4162H185.486C185.136 78.445 184.786 78.3563 184.493 78.1639C184.284 77.8954 184.188 77.5562 184.225 77.218V77.0604C183.867 77.54 183.388 77.9156 182.837 78.1482C182.201 78.4221 181.513 78.5565 180.819 78.5423C180.149 78.5901 179.479 78.4364 178.896 78.1009C178.69 77.9729 178.521 77.7939 178.405 77.5811C178.289 77.3684 178.23 77.1292 178.234 76.8869L178.486 76.7293ZM179.889 77.486C180.284 77.6694 180.716 77.7559 181.151 77.7383C181.938 77.7396 182.712 77.5445 183.405 77.1707C183.714 77.0373 183.978 76.8177 184.165 76.5381C184.353 76.2584 184.455 75.9307 184.461 75.5942V74.9478H183.704H182.695C182.303 74.9865 181.913 75.0497 181.529 75.137C181.198 75.137 180.851 75.3262 180.504 75.4365C180.179 75.5537 179.891 75.755 179.669 76.0199C179.579 76.1017 179.507 76.2015 179.458 76.3128C179.409 76.4242 179.384 76.5446 179.385 76.6662C179.369 76.839 179.41 77.0122 179.501 77.16C179.592 77.3077 179.728 77.4221 179.889 77.486Z" fill="#201021"/>
<path d="M187.756 72.0623H188.592V73.4654C188.794 73.0086 189.136 72.6278 189.569 72.3776C190.095 72.07 190.694 71.9119 191.303 71.9204C193.463 71.9204 194.551 72.9293 194.551 74.9315V78.2737H193.7V74.9315C193.7 73.355 192.864 72.6298 191.209 72.6298C190.504 72.5922 189.811 72.8232 189.27 73.2762C189.024 73.5233 188.834 73.8197 188.712 74.1459C188.589 74.472 188.538 74.8204 188.56 75.168V78.321H187.693L187.756 72.0623Z" fill="#201021"/>
<path d="M196.096 75.1843C196.082 74.7382 196.169 74.2947 196.352 73.8876C196.535 73.4805 196.809 73.1206 197.152 72.8353C197.946 72.1902 198.953 71.8642 199.974 71.9209C200.529 71.8943 201.082 72.004 201.585 72.2403C202.088 72.4767 202.525 72.8325 202.859 73.2767V69.3984H203.726V78.2743H202.907V76.9657C202.598 77.4111 202.18 77.7695 201.693 78.0062C201.172 78.275 200.592 78.4104 200.006 78.4004H199.895C198.906 78.4508 197.932 78.143 197.152 77.5333C196.806 77.2503 196.531 76.8908 196.347 76.4832C196.164 76.0755 196.078 75.6309 196.096 75.1843ZM197.862 77.0288C198.47 77.4989 199.222 77.7441 199.99 77.7225C200.76 77.7557 201.515 77.4967 202.102 76.9973C202.362 76.7734 202.569 76.4946 202.708 76.1811C202.847 75.8676 202.915 75.5271 202.907 75.1843C202.919 74.8355 202.854 74.4883 202.718 74.167C202.582 73.8457 202.377 73.558 202.118 73.324C201.52 72.8346 200.762 72.5821 199.99 72.6145C199.216 72.5852 198.456 72.831 197.846 73.3082C197.562 73.5291 197.336 73.8147 197.185 74.141C197.034 74.4674 196.963 74.8251 196.979 75.1843C196.965 75.5403 197.038 75.8944 197.192 76.2158C197.346 76.5372 197.576 76.8163 197.862 77.0288Z" fill="#201021"/>
<path d="M210.836 75.5933C210.83 75.6298 210.83 75.6672 210.836 75.7037L210.931 76.0032C210.989 76.1427 211.063 76.275 211.152 76.3973C211.261 76.5675 211.4 76.7169 211.562 76.8388C211.762 77.006 211.985 77.144 212.224 77.2487C212.54 77.392 212.874 77.4927 213.217 77.5482C213.659 77.628 214.108 77.665 214.557 77.6586C215.167 77.67 215.776 77.6065 216.37 77.4694C216.776 77.3879 217.159 77.2155 217.489 76.9649C217.704 76.7883 217.886 76.5747 218.025 76.3343C218.119 76.1479 218.173 75.9438 218.183 75.7352C218.186 75.5319 218.135 75.3314 218.035 75.1542C217.936 74.9769 217.791 74.8293 217.615 74.7262C217.183 74.4424 216.693 74.2592 216.181 74.1902L214.289 73.8907L212.381 73.5596C211.847 73.4723 211.336 73.2736 210.884 72.9763C210.695 72.8566 210.537 72.6945 210.422 72.5029C210.307 72.3113 210.238 72.0955 210.222 71.8727C210.214 71.8099 210.214 71.7464 210.222 71.6835C210.229 71.3151 210.337 70.9557 210.535 70.6444C210.732 70.3332 211.011 70.0819 211.341 69.9178C212.314 69.4193 213.403 69.1907 214.494 69.2557C215.179 69.2443 215.863 69.3238 216.528 69.4922C216.984 69.5865 217.421 69.7571 217.82 69.9967C218.079 70.176 218.303 70.4003 218.482 70.6588C218.614 70.8234 218.716 71.0102 218.782 71.2106C218.793 71.2996 218.793 71.3896 218.782 71.4786H217.852C217.856 71.4261 217.856 71.3734 217.852 71.3209C217.795 71.1907 217.721 71.0687 217.631 70.9583C217.482 70.7791 217.3 70.6294 217.095 70.5169C216.778 70.3484 216.438 70.2263 216.086 70.1543C215.567 70.049 215.039 69.9961 214.51 69.9967C213.667 69.9492 212.826 70.1174 212.066 70.4854C211.827 70.5826 211.621 70.7451 211.47 70.9542C211.32 71.1633 211.231 71.4106 211.215 71.6678V71.8254C211.253 72.003 211.335 72.1681 211.453 72.3058C211.572 72.4435 211.723 72.5493 211.893 72.6137C212.392 72.837 212.925 72.9755 213.469 73.0236C214.052 73.0236 214.683 73.1812 215.361 73.2916C216.039 73.402 216.669 73.5281 217.253 73.67C217.789 73.7832 218.285 74.0392 218.687 74.4109C218.872 74.5743 219.018 74.7762 219.116 75.0022C219.214 75.2283 219.262 75.4731 219.255 75.7194C219.264 76.1282 219.159 76.5313 218.949 76.8827C218.74 77.234 218.436 77.5193 218.073 77.7059C217.035 78.233 215.876 78.4725 214.715 78.3995C214.001 78.416 213.289 78.3257 212.602 78.1315C212.104 78.0023 211.634 77.7833 211.215 77.4851C210.924 77.2612 210.673 76.9893 210.474 76.6811C210.326 76.4673 210.209 76.2338 210.127 75.9874C210.112 75.8565 210.112 75.7242 210.127 75.5933H210.836Z" fill="#201021"/>
<path d="M220.138 72.0627H221.446V70.2339H222.235V72.0627H224.946V72.8667H222.235V77.1706C222.219 77.2941 222.253 77.4188 222.329 77.5174C222.329 77.5174 222.487 77.612 222.66 77.612H224.883V78.353H222.66C222.31 78.3818 221.961 78.2931 221.667 78.1007C221.558 77.9736 221.477 77.8254 221.428 77.6653C221.379 77.5052 221.364 77.3368 221.383 77.1706V72.8667H220.075L220.138 72.0627Z" fill="#201021"/>
<path d="M226.586 78.2737V72.0622H227.421V73.5126C227.562 73.0643 227.851 72.6769 228.24 72.4135C228.63 72.1501 229.097 72.0263 229.565 72.0622H230.953V72.8663H229.581C229.269 72.8566 228.958 72.9103 228.667 73.0239C228.428 73.101 228.215 73.2429 228.052 73.4338C227.881 73.6295 227.758 73.8613 227.689 74.1117C227.601 74.3992 227.543 74.6951 227.516 74.9946C227.498 75.3622 227.498 75.7305 227.516 76.0981V78.3526L226.586 78.2737Z" fill="#201021"/>
<path d="M231.694 76.7293C231.683 76.4961 231.744 76.2652 231.867 76.0671C231.989 75.8538 232.162 75.6748 232.372 75.5469C232.592 75.3971 232.824 75.2653 233.065 75.1528C233.341 75.0174 233.632 74.9168 233.932 74.8532L234.847 74.6483L235.777 74.5222H236.581H237.259H237.669C237.69 74.2618 237.647 74.0002 237.542 73.7607C237.438 73.5213 237.275 73.3117 237.07 73.1506C236.545 72.8147 235.925 72.6596 235.304 72.7092C234.938 72.7065 234.572 72.7489 234.216 72.8353C233.974 72.9025 233.745 73.009 233.538 73.1506C233.407 73.2551 233.29 73.3771 233.191 73.5132C233.114 73.6037 233.06 73.712 233.034 73.8285V73.9546H232.119C232.112 73.8602 232.112 73.7653 232.119 73.6708C232.182 73.5108 232.262 73.3576 232.356 73.2136C232.495 73.0005 232.671 72.8137 232.876 72.6619C233.165 72.4716 233.485 72.3329 233.822 72.252C234.294 72.1179 234.782 72.0541 235.272 72.0628C237.401 72.0628 238.425 72.8983 238.425 74.5537V77.2338C238.391 77.3522 238.391 77.478 238.425 77.5964C238.525 77.6559 238.641 77.6834 238.757 77.6752H239.576V78.4162H238.993C238.648 78.4415 238.305 78.3529 238.016 78.1639C237.908 78.0332 237.829 77.8817 237.783 77.7189C237.737 77.5562 237.725 77.3856 237.748 77.218V77.0604C237.39 77.54 236.911 77.9156 236.36 78.1482C235.718 78.4219 235.025 78.5563 234.326 78.5423C233.656 78.5863 232.987 78.4329 232.403 78.1009C232.201 77.9699 232.036 77.7898 231.923 77.5774C231.81 77.3651 231.753 77.1275 231.757 76.8869L231.694 76.7293ZM233.097 77.486C233.491 77.6694 233.924 77.7559 234.358 77.7383C235.145 77.7396 235.92 77.5445 236.612 77.1707C236.921 77.0373 237.186 76.8177 237.373 76.5381C237.56 76.2584 237.663 75.9307 237.669 75.5942V74.9478H236.912H235.903C235.511 74.9865 235.121 75.0497 234.736 75.137C234.39 75.137 234.058 75.3262 233.712 75.4365C233.411 75.5224 233.135 75.6792 232.908 75.8937C232.813 75.9727 232.737 76.0717 232.686 76.1834C232.634 76.2951 232.607 76.4169 232.608 76.5401C232.567 76.7381 232.601 76.9441 232.703 77.1187C232.805 77.2933 232.967 77.4241 233.16 77.486H233.097Z" fill="#201021"/>
<path d="M239.97 72.0627H241.279V70.2339H242.146V72.0627H244.842V72.8667H242.146V77.1706C242.146 77.344 242.146 77.4544 242.225 77.5174C242.304 77.5805 242.383 77.612 242.556 77.612H244.795V78.353H242.556C242.206 78.3818 241.856 78.2931 241.563 78.1007C241.454 77.9736 241.372 77.8254 241.324 77.6653C241.275 77.5052 241.26 77.3368 241.279 77.1706V72.8667H239.97V72.0627Z" fill="#201021"/>
<path d="M245.772 75.1844C245.754 74.7429 245.831 74.3026 246 73.8942C246.169 73.4859 246.425 73.1191 246.75 72.8196C247.505 72.1845 248.476 71.863 249.461 71.921C249.998 71.916 250.532 72.0068 251.038 72.189C251.465 72.3302 251.858 72.5613 252.189 72.8669C252.434 73.133 252.637 73.4363 252.788 73.7655C252.917 74.0309 253.013 74.3116 253.071 74.6011C253.084 74.79 253.084 74.9797 253.071 75.1686C253.071 75.2632 253.071 75.3736 253.071 75.4682H246.623C246.642 75.7689 246.72 76.063 246.852 76.3335C246.985 76.6041 247.17 76.8458 247.396 77.0447C247.983 77.5046 248.717 77.7345 249.461 77.6911C249.847 77.7155 250.235 77.6836 250.612 77.5965C250.882 77.5256 251.138 77.4082 251.369 77.2496C251.53 77.1291 251.678 76.9917 251.81 76.8397C251.914 76.7429 251.994 76.6245 252.047 76.4929V76.351H252.945V76.5717C252.858 76.7473 252.758 76.9159 252.646 77.0762C252.475 77.3124 252.274 77.5246 252.047 77.7068C251.74 77.9346 251.392 78.1006 251.022 78.1955C250.513 78.3604 249.98 78.4351 249.445 78.4162C248.47 78.4727 247.509 78.1635 246.75 77.5492C246.421 77.2523 246.163 76.8861 245.994 76.477C245.825 76.068 245.749 75.6264 245.772 75.1844ZM252.189 74.7587C252.199 74.4607 252.142 74.1643 252.021 73.8914C251.901 73.6184 251.721 73.3761 251.495 73.1822C250.917 72.7179 250.185 72.4873 249.445 72.5358C248.706 72.4919 247.976 72.722 247.396 73.1822C247.166 73.3792 246.978 73.6201 246.843 73.8908C246.707 74.1616 246.627 74.4567 246.608 74.7587H252.189Z" fill="#201021"/>
<path d="M254.317 75.1838C254.307 74.746 254.393 74.3113 254.57 73.9107C254.748 73.5102 255.011 73.1536 255.341 72.8663C256.138 72.2253 257.142 71.8998 258.163 71.952C258.735 71.9205 259.304 72.034 259.82 72.2821C260.335 72.5302 260.78 72.9048 261.112 73.3708V72.0938H261.931V79.6454C261.951 79.8116 261.935 79.98 261.887 80.1401C261.838 80.3002 261.756 80.4484 261.648 80.5755C261.354 80.7679 261.004 80.8566 260.654 80.8278H254.821V80.0868H260.654C260.77 80.095 260.886 80.0675 260.985 80.008C261.047 79.8974 261.074 79.7714 261.064 79.6454V77.0284C260.754 77.4603 260.335 77.8029 259.85 78.0216C259.361 78.2682 258.822 78.3978 258.274 78.3999H258.163C257.157 78.4805 256.155 78.195 255.341 77.5959C254.995 77.3009 254.722 76.9293 254.545 76.5107C254.367 76.0921 254.289 75.6378 254.317 75.1838ZM255.2 75.1838C255.188 75.5395 255.263 75.8927 255.416 76.2136C255.57 76.5346 255.798 76.814 256.082 77.0284C256.696 77.4996 257.453 77.7447 258.226 77.722C258.996 77.7462 259.747 77.4882 260.339 76.9968C260.599 76.7729 260.806 76.4942 260.945 76.1807C261.084 75.8672 261.152 75.5267 261.143 75.1838C261.156 74.8334 261.091 74.4844 260.952 74.1625C260.813 73.8406 260.603 73.5539 260.339 73.3235C259.751 72.827 258.995 72.5733 258.226 72.6141C257.447 72.5838 256.682 72.8294 256.067 73.3078C255.786 73.5312 255.561 73.8173 255.411 74.143C255.26 74.4687 255.188 74.8252 255.2 75.1838Z" fill="#201021"/>
<path d="M263.492 72.062H264.438L267.039 77.501L269.656 72.062H270.602L266.897 79.582C266.764 79.9062 266.583 80.209 266.361 80.4806C266.078 80.7103 265.717 80.8231 265.352 80.7959H263.618V80.055H265.352C265.461 80.0837 265.575 80.0837 265.684 80.055C265.757 80.0302 265.822 79.9867 265.873 79.9288C265.93 79.837 265.983 79.7423 266.03 79.6451L266.629 78.3996L263.492 72.062Z" fill="#201021"/>
<path d="M167.608 88.8997C167.596 88.3965 167.764 87.9057 168.082 87.5155C168.4 87.1253 168.847 86.8614 169.342 86.7714C168.952 86.6734 168.605 86.4482 168.357 86.1314C168.108 85.8145 167.973 85.4241 167.971 85.0215C167.966 84.6541 168.063 84.2927 168.253 83.9779C168.442 83.6631 168.716 83.4075 169.043 83.24C169.964 82.7555 170.999 82.532 172.038 82.5936C172.688 82.578 173.337 82.6631 173.962 82.8459C174.402 82.9459 174.816 83.1395 175.175 83.4134C175.421 83.6112 175.629 83.8515 175.79 84.1229C175.916 84.3042 176.007 84.5074 176.058 84.7219C176.07 84.8214 176.07 84.922 176.058 85.0215H175.144C175.148 84.9532 175.148 84.8848 175.144 84.8165C175.1 84.6692 175.03 84.5305 174.939 84.4066C174.805 84.2124 174.64 84.0419 174.45 83.9022C174.16 83.718 173.84 83.5847 173.504 83.508C173.022 83.374 172.523 83.3103 172.022 83.3188C169.92 83.3188 168.869 83.8864 168.869 85.0215C168.885 85.3812 169.03 85.723 169.279 85.9832C169.434 86.1371 169.619 86.2571 169.822 86.3358C170.026 86.4145 170.244 86.4501 170.462 86.4404H176.925V87.134H176.058V90.2082C176.041 90.3346 176.069 90.4632 176.137 90.5708C176.244 90.6081 176.361 90.6081 176.468 90.5708H176.925V91.3276H176.515C176.168 91.3616 175.82 91.2662 175.538 91.0596C175.428 90.933 175.346 90.7848 175.298 90.6246C175.249 90.4644 175.234 90.2957 175.254 90.1294V89.8929C174.934 90.4279 174.462 90.8558 173.898 91.1226C173.259 91.4321 172.559 91.5938 171.849 91.5956C170.786 91.6479 169.731 91.3964 168.806 90.8704C168.45 90.6776 168.151 90.3935 167.94 90.0472C167.73 89.701 167.615 89.3049 167.608 88.8997ZM168.554 88.8997C168.546 89.1929 168.62 89.4825 168.768 89.7359C168.915 89.9894 169.131 90.1966 169.39 90.3344C170.135 90.7318 170.973 90.9224 171.817 90.8861C172.697 90.9172 173.563 90.6689 174.293 90.1767C174.582 89.9829 174.819 89.7199 174.981 89.4116C175.144 89.1033 175.227 88.7594 175.223 88.411V87.2444H170.493C169.973 87.2157 169.459 87.372 169.043 87.6858C168.895 87.8463 168.783 88.0357 168.712 88.2419C168.642 88.4481 168.615 88.6668 168.633 88.884L168.554 88.8997Z" fill="#201021"/>
<path d="M189.396 82.5935C190.69 82.5114 191.964 82.9418 192.943 83.7917C193.763 84.668 194.219 85.8233 194.219 87.0236C194.219 88.2238 193.763 89.3791 192.943 90.2554C191.965 91.108 190.691 91.5437 189.396 91.4693H184.666V82.5935H189.396ZM189.396 90.7284C189.999 90.7369 190.598 90.6298 191.161 90.4131C191.635 90.2401 192.061 89.9594 192.407 89.5933C192.706 89.249 192.941 88.8539 193.101 88.4267C193.261 87.9818 193.341 87.5121 193.337 87.0393C193.383 86.0416 193.032 85.0663 192.36 84.3277C191.959 83.9691 191.49 83.6949 190.98 83.5216C190.471 83.3482 189.932 83.2792 189.396 83.3187H185.628V90.7284H189.396Z" fill="#201021"/>
<path d="M195.434 88.3798C195.422 87.9392 195.503 87.5011 195.672 87.0938C195.84 86.6865 196.092 86.319 196.411 86.015C197.167 85.38 198.137 85.0584 199.123 85.1164C199.66 85.1114 200.194 85.2022 200.699 85.3844C201.104 85.5191 201.475 85.7395 201.787 86.0308C202.033 86.2969 202.235 86.6002 202.386 86.9294C202.523 87.1918 202.619 87.4736 202.67 87.765C202.683 87.9539 202.683 88.1436 202.67 88.3325C202.67 88.4271 202.67 88.5375 202.67 88.6321H196.222C196.243 88.9337 196.324 89.2283 196.459 89.4988C196.594 89.7693 196.782 90.0105 197.01 90.2086C197.589 90.6715 198.32 90.9019 199.06 90.855C199.438 90.8558 199.815 90.8027 200.179 90.6973C200.452 90.633 200.709 90.5151 200.936 90.3505C201.097 90.23 201.245 90.0926 201.377 89.9406C201.481 89.8438 201.561 89.7254 201.614 89.5937V89.4519H202.512V89.6726C202.425 89.8481 202.325 90.0168 202.213 90.177C202.042 90.4133 201.841 90.6254 201.614 90.8077C201.311 91.0326 200.969 91.1984 200.605 91.2964C200.095 91.4585 199.562 91.5331 199.028 91.5171C198.053 91.5736 197.092 91.2644 196.332 90.65C196.031 90.3565 195.795 90.0025 195.64 89.6112C195.485 89.2199 195.415 88.8002 195.434 88.3798ZM201.882 87.9542C201.888 87.6552 201.827 87.3587 201.704 87.0861C201.582 86.8134 201.4 86.5714 201.172 86.3776C200.594 85.9134 199.863 85.6827 199.123 85.7313C198.383 85.6873 197.654 85.9174 197.073 86.3776C196.845 86.5757 196.658 86.8169 196.522 87.0875C196.387 87.358 196.306 87.6525 196.285 87.9542H201.882Z" fill="#201021"/>
<path d="M203.884 89.5933H204.783C204.769 89.645 204.769 89.6993 204.783 89.751C204.833 89.8601 204.891 89.9655 204.956 90.0663C205.061 90.2163 205.189 90.3493 205.334 90.4604C205.563 90.6035 205.813 90.7099 206.075 90.7757C206.45 90.882 206.837 90.9351 207.226 90.9333C207.855 90.9648 208.482 90.8459 209.055 90.5865C209.231 90.514 209.383 90.3921 209.492 90.2356C209.601 90.079 209.663 89.8943 209.67 89.7037C209.653 89.5346 209.585 89.3747 209.476 89.2451C209.366 89.1155 209.219 89.0225 209.055 88.9785C208.608 88.7917 208.135 88.6747 207.652 88.6316L206.075 88.4109C205.588 88.3501 205.116 88.1948 204.688 87.9537C204.508 87.8573 204.357 87.7142 204.252 87.5394C204.147 87.3646 204.09 87.1646 204.089 86.9605C204.111 86.7029 204.195 86.4546 204.335 86.2374C204.476 86.0202 204.667 85.8408 204.893 85.7151C205.591 85.3152 206.391 85.1288 207.195 85.1791C207.668 85.1743 208.14 85.2326 208.598 85.3525C208.917 85.4267 209.22 85.5546 209.496 85.7308C209.699 85.8657 209.876 86.0367 210.017 86.2353C210.118 86.3662 210.203 86.5092 210.269 86.661C210.269 86.661 210.269 86.8186 210.269 86.8975H209.354C209.36 86.8556 209.36 86.8132 209.354 86.7713C209.312 86.6776 209.253 86.5922 209.181 86.5191C209.085 86.3944 208.967 86.2877 208.834 86.2038C208.628 86.0863 208.404 86.0012 208.172 85.9515C207.843 85.8659 207.503 85.8235 207.163 85.8254C206.621 85.8101 206.082 85.9179 205.587 86.1407C205.419 86.1982 205.271 86.3034 205.162 86.4434C205.053 86.5834 204.987 86.7521 204.972 86.929C204.986 87.0509 205.033 87.1666 205.108 87.2638C205.183 87.3609 205.283 87.4359 205.397 87.4808C205.722 87.6421 206.076 87.7385 206.438 87.7645L207.778 87.9537C208.267 87.9537 208.724 88.1114 209.134 88.206C209.525 88.2849 209.889 88.4642 210.19 88.7262C210.33 88.8404 210.443 88.9848 210.519 89.1486C210.596 89.3124 210.634 89.4914 210.631 89.6721C210.628 89.9488 210.552 90.2197 210.411 90.4577C210.27 90.6957 210.069 90.8924 209.827 91.0279C209.05 91.4446 208.169 91.6305 207.289 91.564C206.757 91.5755 206.227 91.5118 205.713 91.3748C205.357 91.2748 205.021 91.1148 204.719 90.9018C204.513 90.7354 204.332 90.5387 204.183 90.3185C204.07 90.164 203.98 89.9941 203.915 89.814C203.897 89.7417 203.887 89.6678 203.884 89.5933Z" fill="#201021"/>
<path d="M212.176 83.0977C212.176 83.0127 212.192 82.9283 212.224 82.8498C212.257 82.7712 212.305 82.7 212.366 82.6405C212.426 82.5756 212.499 82.5238 212.581 82.4884C212.662 82.453 212.75 82.4347 212.839 82.4347C212.927 82.4347 213.015 82.453 213.096 82.4884C213.178 82.5238 213.251 82.5756 213.312 82.6405C213.372 82.7 213.42 82.7712 213.453 82.8498C213.485 82.9283 213.502 83.0127 213.501 83.0977C213.501 83.2733 213.431 83.4417 213.307 83.5659C213.183 83.69 213.014 83.7598 212.839 83.7598C212.663 83.7598 212.495 83.69 212.37 83.5659C212.246 83.4417 212.176 83.2733 212.176 83.0977ZM213.28 85.2575V91.469H212.413V85.2575H213.28Z" fill="#201021"/>
<path d="M215.077 88.3952C215.06 87.9465 215.147 87.4999 215.33 87.0899C215.513 86.6799 215.788 86.3174 216.134 86.0304C216.928 85.3854 217.934 85.0594 218.955 85.1161C219.525 85.0828 220.093 85.1957 220.606 85.4441C221.119 85.6924 221.561 86.0679 221.888 86.5349V85.2579H222.723V92.8095C222.743 92.9769 222.726 93.1465 222.674 93.3069C222.623 93.4674 222.537 93.6149 222.424 93.7396C222.133 93.9391 221.781 94.0286 221.431 93.9919H215.597V93.2509H221.431C221.538 93.2882 221.654 93.2882 221.762 93.2509C221.837 93.146 221.871 93.0167 221.856 92.8883V90.2082C221.542 90.6363 221.124 90.9779 220.642 91.2014C220.128 91.4562 219.561 91.5859 218.987 91.5798H218.877C217.888 91.6274 216.915 91.3199 216.134 90.7127C215.791 90.4338 215.517 90.0796 215.334 89.6776C215.151 89.2756 215.063 88.8368 215.077 88.3952ZM215.96 88.3952C215.948 88.7471 216.021 89.0967 216.172 89.4149C216.322 89.733 216.547 90.0104 216.827 90.224C217.442 90.693 218.198 90.9377 218.971 90.9177C219.742 90.9509 220.496 90.6919 221.084 90.1925C221.344 89.9686 221.55 89.6898 221.69 89.3763C221.829 89.0628 221.896 88.7223 221.888 88.3795C221.9 88.0307 221.835 87.6835 221.699 87.3622C221.563 87.0409 221.358 86.7531 221.1 86.5192C220.501 86.0298 219.744 85.7773 218.971 85.8097C218.197 85.7804 217.437 86.0262 216.827 86.5034C216.537 86.7234 216.303 87.0102 216.147 87.3395C215.99 87.6688 215.915 88.0309 215.929 88.3952H215.96Z" fill="#201021"/>
<path d="M224.678 85.2578H225.498V86.6609C225.713 86.207 226.059 85.8281 226.491 85.5731C227.017 85.2656 227.616 85.1075 228.225 85.1159C230.401 85.1159 231.489 86.1249 231.489 88.1271V91.4693H230.622V88.1271C230.622 86.5506 229.802 85.8254 228.146 85.8254C227.442 85.7878 226.749 86.0188 226.207 86.4717C225.962 86.7188 225.772 87.0153 225.649 87.3414C225.527 87.6676 225.475 88.016 225.498 88.3636V91.5166H224.631L224.678 85.2578Z" fill="#201021"/>
<path d="M238.536 88.7896C238.536 88.7896 238.536 88.7896 238.536 88.9L238.63 89.1995C238.688 89.3391 238.762 89.4713 238.851 89.5937C238.961 89.7638 239.099 89.9132 239.261 90.0351C239.461 90.2023 239.684 90.3404 239.923 90.445C240.24 90.5883 240.573 90.6891 240.916 90.7445C241.358 90.8243 241.807 90.8613 242.256 90.8549C242.871 90.8653 243.485 90.8018 244.085 90.6657C244.486 90.581 244.863 90.4087 245.189 90.1612C245.404 89.9846 245.585 89.7711 245.725 89.5306C245.819 89.3442 245.873 89.1401 245.882 88.9315C245.885 88.7282 245.834 88.5277 245.735 88.3505C245.635 88.1733 245.49 88.0256 245.315 87.9226C244.884 87.6363 244.393 87.4529 243.88 87.3865L241.988 87.087L240.081 86.7559C239.519 86.6796 238.981 86.4804 238.504 86.1726C238.316 86.0529 238.157 85.8908 238.043 85.6992C237.928 85.5077 237.859 85.2919 237.842 85.0691C237.834 85.0062 237.834 84.9427 237.842 84.8799C237.85 84.5114 237.958 84.152 238.155 83.8408C238.353 83.5295 238.631 83.2782 238.961 83.1142C239.935 82.6171 241.023 82.3886 242.115 82.452C242.795 82.4405 243.473 82.5201 244.132 82.6885C244.589 82.7828 245.026 82.9534 245.425 83.193C245.685 83.3765 245.913 83.6 246.103 83.8551C246.226 84.0233 246.321 84.2095 246.387 84.4069C246.397 84.496 246.397 84.5858 246.387 84.6749H245.441C245.446 84.6225 245.446 84.5697 245.441 84.5173C245.384 84.387 245.31 84.265 245.22 84.1547C245.073 83.9793 244.897 83.83 244.7 83.7132C244.376 83.5478 244.031 83.4258 243.675 83.3506C243.156 83.2453 242.628 83.1925 242.099 83.193C241.251 83.1456 240.405 83.3138 239.639 83.6817C239.401 83.7789 239.194 83.9414 239.044 84.1505C238.893 84.3596 238.805 84.6069 238.788 84.8641C238.781 84.9164 238.781 84.9694 238.788 85.0218C238.821 85.1993 238.899 85.3653 239.015 85.5035C239.131 85.6417 239.281 85.7473 239.45 85.81C239.95 86.0311 240.482 86.1696 241.027 86.2199C241.61 86.2199 242.241 86.3776 242.934 86.4879C243.628 86.5983 244.243 86.7244 244.81 86.8663C245.348 86.9765 245.844 87.2329 246.245 87.6072C246.429 87.7713 246.574 87.9733 246.672 88.1992C246.77 88.4251 246.818 88.6696 246.813 88.9158C246.822 89.3245 246.716 89.7277 246.507 90.079C246.298 90.4303 245.994 90.7156 245.63 90.9022C244.593 91.4293 243.433 91.6688 242.272 91.5958C241.559 91.6112 240.847 91.5209 240.16 91.3278C239.665 91.2024 239.199 90.983 238.788 90.6815C238.489 90.4621 238.232 90.1896 238.031 89.8774C237.884 89.6636 237.767 89.4301 237.684 89.1838C237.668 89.0529 237.668 88.9205 237.684 88.7896H238.536Z" fill="#201021"/>
<path d="M247.837 85.2583H249.146V83.4296H249.997V85.2583H252.709V85.9835H249.997V90.2874C249.982 90.411 250.016 90.5356 250.092 90.6343C250.092 90.6343 250.249 90.7289 250.423 90.7289H252.661V91.4698H250.423C250.073 91.4987 249.723 91.4099 249.43 91.2176C249.321 91.0905 249.239 90.9422 249.19 90.7822C249.142 90.6221 249.126 90.4537 249.146 90.2874V85.9835H247.837V85.2583Z" fill="#201021"/>
<path d="M254.128 88.7582V85.2583H254.979V88.7582C254.979 90.1928 255.783 90.9023 257.375 90.9023C258.043 90.9255 258.693 90.688 259.188 90.2401C259.431 90.0008 259.62 89.7125 259.742 89.3944C259.864 89.0763 259.917 88.7358 259.898 88.3956V85.2426H260.765V91.4698H259.945V90.0036C259.736 90.4507 259.409 90.8323 258.999 91.1072C258.533 91.4219 257.985 91.5919 257.423 91.5959C255.226 91.5959 254.128 90.65 254.128 88.7582Z" fill="#201021"/>
<path d="M262.341 88.3955C262.324 87.9467 262.411 87.5001 262.594 87.0901C262.777 86.6801 263.052 86.3177 263.398 86.0307C264.192 85.3856 265.198 85.0596 266.219 85.1163C266.774 85.0898 267.328 85.1995 267.83 85.4358C268.333 85.6721 268.771 86.0279 269.105 86.4721V82.5939H269.987V91.4697H269.152V90.2085C268.843 90.6538 268.425 91.0122 267.938 91.249C267.417 91.5177 266.837 91.6532 266.251 91.6431H266.141C265.152 91.6907 264.179 91.3832 263.398 90.776C263.046 90.4907 262.767 90.1262 262.584 89.7125C262.4 89.2988 262.317 88.8475 262.341 88.3955ZM264.107 90.2085C264.716 90.6775 265.467 90.9224 266.235 90.9021C267.006 90.937 267.761 90.6777 268.348 90.1769C268.608 89.9531 268.815 89.6743 268.954 89.3608C269.093 89.0473 269.16 88.7068 269.152 88.3639C269.164 88.0152 269.099 87.668 268.963 87.3467C268.827 87.0253 268.622 86.7376 268.364 86.5036C267.765 86.0142 267.008 85.7618 266.235 85.7942C265.461 85.7649 264.702 86.0106 264.091 86.4879C263.806 86.7112 263.579 86.9995 263.428 87.3286C263.277 87.6577 263.207 88.0181 263.224 88.3797C263.211 88.7333 263.285 89.0847 263.439 89.4034C263.593 89.7221 263.822 89.9984 264.107 90.2085Z" fill="#201021"/>
<path d="M271.942 83.0983C271.941 83.0133 271.958 82.929 271.99 82.8504C272.023 82.7718 272.071 82.7006 272.131 82.6411C272.19 82.5739 272.263 82.5206 272.345 82.4852C272.427 82.4497 272.515 82.433 272.604 82.4362C272.693 82.4361 272.781 82.4542 272.862 82.4895C272.944 82.5247 273.017 82.5763 273.077 82.6411C273.138 82.7006 273.186 82.7718 273.219 82.8504C273.251 82.929 273.267 83.0133 273.266 83.0983C273.269 83.1859 273.253 83.2729 273.22 83.3542C273.188 83.4355 273.139 83.5094 273.077 83.5713C272.949 83.692 272.78 83.7597 272.604 83.7605C272.517 83.7626 272.43 83.747 272.348 83.7145C272.267 83.6819 272.193 83.6333 272.131 83.5713C272.069 83.5094 272.021 83.4356 271.988 83.3542C271.956 83.2729 271.94 83.1859 271.942 83.0983ZM273.046 85.2581V91.4696H272.179V85.2581H273.046Z" fill="#201021"/>
<path d="M275.915 86.0304C276.707 85.3918 277.705 85.0663 278.721 85.116C279.746 85.0744 280.752 85.3985 281.559 86.0304C281.895 86.3263 282.163 86.6902 282.347 87.0979C282.531 87.5056 282.627 87.9479 282.627 88.3952C282.627 88.8425 282.531 89.2848 282.347 89.6925C282.163 90.1002 281.895 90.4641 281.559 90.76C280.75 91.3875 279.744 91.7061 278.721 91.6586C277.708 91.7055 276.712 91.3866 275.915 90.76C275.58 90.4641 275.311 90.1002 275.127 89.6925C274.943 89.2848 274.848 88.8425 274.848 88.3952C274.848 87.9479 274.943 87.5056 275.127 87.0979C275.311 86.6902 275.58 86.3263 275.915 86.0304ZM275.71 88.3637C275.698 88.7132 275.765 89.061 275.907 89.3806C276.049 89.7002 276.262 89.9832 276.53 90.2082C277.164 90.6791 277.932 90.9334 278.721 90.9334C279.511 90.9334 280.279 90.6791 280.913 90.2082C281.175 89.976 281.385 89.6908 281.528 89.3714C281.672 89.0521 281.746 88.706 281.746 88.3558C281.746 88.0056 281.672 87.6595 281.528 87.3401C281.385 87.0208 281.175 86.7356 280.913 86.5034C280.278 86.0431 279.514 85.7953 278.729 85.7953C277.945 85.7953 277.181 86.0431 276.546 86.5034C276.275 86.73 276.059 87.0152 275.914 87.3374C275.769 87.6597 275.7 88.0106 275.71 88.3637Z" fill="#201021"/>
</svg>
